<svg xmlns="http://www.w3.org/2000/svg" width="751" height="512" viewBox="0 0 751 512">
  <defs>
    <style>
      .cls-1 {
        fill: #5a9b06;
      }

      .cls-1, .cls-2 {
        fill-rule: evenodd;
      }

      .cls-2 {
        fill: #194123;
      }
    </style>
  </defs>
  <path id="Фигура_1" data-name="Фигура 1" class="cls-1" d="M143.9,146.141c90.334,99.572,222.936,314.268,335.348,347.577,71.595,21.215,155.093-123.776,216.679-92.2,38.276,19.627,54.992-46.935,29.375-59.1-60.512-28.742,11.273-175.5-42.56-217.692C660.462,107.263,613.638,90.91,567.71,82.069,432.675,56.076,237.086,57.443,195.108,52.1-49.819,20.945-26.6-41.8,143.9,146.141Z"/>
  <path id="Фигура_2" data-name="Фигура 2" class="cls-2" d="M675.227,346.563C481.09,240.627,131.678,83.113,131.678,83.113s374.605,191.151,539.1,272.405c-2.224-1.1,6.255-8.709,6.165-7.567C676.991,347.34,704.423,362.494,675.227,346.563Z"/>
  <path id="Фигура_2_копия" data-name="Фигура 2 копия" class="cls-2" d="M584.077,297.336c-43.317-70.978-131.522-184.93-131.522-184.93s87.681,131.44,127.012,188.04c-0.532-.765,5.141-2.758,4.753-2.3C584.528,297.9,590.592,308.01,584.077,297.336Z"/>
  <path id="Фигура_2_копия_2" data-name="Фигура 2 копия 2" class="cls-2" d="M555.442,290.465C472.3,291.771,329.35,309.948,329.35,309.948S487.1,301.1,555.834,295.93c-0.929.07,0.232-5.83,0.434-5.261C556.16,290.365,567.946,290.268,555.442,290.465Z"/>
</svg>
