<svg xmlns="http://www.w3.org/2000/svg" width="774" height="478" viewBox="0 0 774 478">
  <defs>
    <style>
      .cls-1 {
        fill: #5a9b06;
      }

      .cls-1, .cls-2 {
        fill-rule: evenodd;
      }

      .cls-2 {
        fill: #194123;
      }
    </style>
  </defs>
  <path id="Фигура_1" data-name="Фигура 1" class="cls-1" d="M580.224,34.212C445.93,40.529,195.933,6.188,98.7,71.7c-61.926,41.727-3.219,198.4-66.77,225.813-39.5,17.036,1.209,72.288,26.9,60.271,60.679-28.387,128.206,120.383,195.006,105.7,27.652-6.076,70.064-31.788,106.112-61.59,105.983-87.622,229.4-239.366,260.23-268.348C800.078-35.549,833.705,22.29,580.224,34.212Z"/>
  <path id="Фигура_2" data-name="Фигура 2" class="cls-2" d="M87.5,316.521c205.261-82.339,549.122-251.63,549.122-251.63s-385.84,167.319-553.2,242.5c2.262-1.016,2.737,10.368,1.913,9.571C85.779,317.386,56.633,328.9,87.5,316.521Z"/>
  <path id="Фигура_2_копия" data-name="Фигура 2 копия" class="cls-2" d="M183.479,277.536c82.317,11.755,226.349,16.231,226.349,16.231S252.64,277.757,183.95,272.078c0.929,0.076-1.144,5.721-1.254,5.127C182.755,277.522,171.1,275.769,183.479,277.536Z"/>
  <path id="Фигура_2_копия_2" data-name="Фигура 2 копия 2" class="cls-2" d="M207,259.82c51.9-64.964,128.851-186.8,128.851-186.8s-93.564,127.32-133.315,183.625c0.537-.761,4.349,3.89,3.781,3.683C206.622,260.438,199.2,269.59,207,259.82Z"/>
</svg>
